<svg width="145" height="48" viewBox="0 0 145 48" fill="none" xmlns="http://www.w3.org/2000/svg">
<rect x="1.1" y="0.6" width="142.8" height="46.8" rx="6.6" fill="black"/>
<rect x="1.1" y="0.6" width="142.8" height="46.8" rx="6.6" stroke="#A6A6A6" stroke-width="1.2"/>
<path d="M30.147 24.9161C30.1615 23.8122 30.4619 22.7298 31.02 21.7697C31.5782 20.8096 32.376 20.0029 33.3393 19.4247C32.7274 18.5715 31.9201 17.8693 30.9815 17.3739C30.043 16.8785 28.999 16.6037 27.9326 16.5711C25.6578 16.338 23.4525 17.9 22.2933 17.9C21.1116 17.9 19.3269 16.5942 17.405 16.6328C16.1618 16.672 14.9503 17.025 13.8884 17.6572C12.8265 18.2895 11.9505 19.1795 11.3456 20.2406C8.72578 24.6691 10.68 31.1774 13.1896 34.7571C14.4453 36.51 15.9127 38.4679 17.8329 38.3985C19.7119 38.3224 20.4137 37.2287 22.6818 37.2287C24.9289 37.2287 25.5873 38.3985 27.5464 38.3544C29.5627 38.3224 30.833 36.5937 32.0446 34.8243C32.9468 33.5753 33.641 32.1949 34.1016 30.7343C32.9302 30.2506 31.9305 29.4409 31.2273 28.4063C30.5241 27.3716 30.1483 26.1578 30.147 24.9161Z" fill="white"/>
<path d="M26.4449 14.2171C27.5442 12.9287 28.0858 11.2726 27.9547 9.60059C26.2751 9.77281 24.7237 10.5565 23.6095 11.7955C23.0647 12.4008 22.6475 13.105 22.3816 13.8678C22.1158 14.6306 22.0065 15.4371 22.0601 16.2411C22.9002 16.2496 23.7313 16.0718 24.4908 15.7212C25.2503 15.3706 25.9184 14.8564 26.4449 14.2171Z" fill="white"/>
<path d="M44.6484 12.3018H47.1322C49.2785 12.3018 50.3227 13.5779 50.3227 15.893C50.3227 18.208 49.268 19.5 47.1322 19.5H44.6484V12.3018ZM45.8455 13.309V18.4928H47.0004C48.4242 18.4928 49.0939 17.6332 49.0939 15.9088C49.0939 14.1738 48.4189 13.309 47.0004 13.309H45.8455ZM54.109 13.8311C55.5645 13.8311 56.5822 14.775 56.5822 16.3412V17.0637C56.5822 18.6826 55.5645 19.5949 54.109 19.5949C52.6324 19.5949 51.6252 18.6932 51.6252 17.0689V16.3465C51.6252 14.8225 52.6482 13.8311 54.109 13.8311ZM54.1143 14.775C53.2811 14.775 52.8064 15.4711 52.8064 16.4045V17.0268C52.8064 17.9602 53.2494 18.651 54.1143 18.651C54.9686 18.651 55.4063 17.9654 55.4063 17.0268V16.4045C55.4063 15.4711 54.9475 14.775 54.1143 14.775ZM65.1779 13.926L63.7119 19.5H62.5201L61.3547 15.3867H61.323L60.1787 19.5H58.9816L57.4523 13.926H58.7127L59.6092 18.1764H59.6619L60.7852 13.926H61.8873L63.0422 18.1764H63.0949L64.0072 13.926H65.1779ZM66.3381 19.5V13.926H67.4877V14.9279H67.5457C67.6881 14.4902 68.0941 13.8416 69.2227 13.8416C70.3459 13.8416 71.1 14.4639 71.1 15.7348V19.5H69.9293V16.0775C69.9293 15.2285 69.4863 14.8383 68.8271 14.8383C67.9623 14.8383 67.5088 15.5027 67.5088 16.4045V19.5H66.3381ZM72.8719 19.5V11.9221H74.0426V19.5H72.8719ZM78.0609 13.8311C79.5164 13.8311 80.5342 14.775 80.5342 16.3412V17.0637C80.5342 18.6826 79.5164 19.5949 78.0609 19.5949C76.5844 19.5949 75.5771 18.6932 75.5771 17.0689V16.3465C75.5771 14.8225 76.6002 13.8311 78.0609 13.8311ZM78.0662 14.775C77.233 14.775 76.7584 15.4711 76.7584 16.4045V17.0268C76.7584 17.9602 77.2014 18.651 78.0662 18.651C78.9205 18.651 79.3582 17.9654 79.3582 17.0268V16.4045C79.3582 15.4711 78.8994 14.775 78.0662 14.775ZM83.5664 19.5844C82.4854 19.5844 81.7418 18.9199 81.7418 17.8811C81.7418 16.8949 82.4273 16.2305 83.7141 16.2305H85.1221V15.7084C85.1221 15.0703 84.716 14.7697 84.0727 14.7697C83.4398 14.7697 83.1551 15.0334 83.0654 15.4025H81.9527C82.0213 14.4691 82.7227 13.8416 84.1096 13.8416C85.3014 13.8416 86.2875 14.3373 86.2875 15.7242V19.5H85.1748V18.7775H85.1221C84.8742 19.2047 84.3891 19.5844 83.5664 19.5844ZM83.9303 18.6773C84.5947 18.6773 85.1221 18.2238 85.1221 17.6174V17.0162H83.8986C83.2184 17.0162 82.9178 17.359 82.9178 17.823C82.9178 18.4031 83.4029 18.6773 83.9303 18.6773ZM89.8945 13.8521C90.6803 13.8521 91.2814 14.2002 91.4977 14.7645H91.5557V11.9221H92.7264V19.5H91.5873V18.6088H91.5293C91.3606 19.173 90.6908 19.5738 89.8787 19.5738C88.5973 19.5738 87.7641 18.6615 87.7641 17.1902V16.2357C87.7641 14.7645 88.6131 13.8521 89.8945 13.8521ZM90.2215 14.8119C89.441 14.8119 88.9559 15.392 88.9559 16.4045V17.0162C88.9559 18.034 89.4463 18.6141 90.2479 18.6141C91.0389 18.6141 91.5557 18.0393 91.5557 17.09V16.2463C91.5557 15.3867 90.9914 14.8119 90.2215 14.8119ZM99.1547 13.8311C100.61 13.8311 101.628 14.775 101.628 16.3412V17.0637C101.628 18.6826 100.61 19.5949 99.1547 19.5949C97.6781 19.5949 96.6709 18.6932 96.6709 17.0689V16.3465C96.6709 14.8225 97.6939 13.8311 99.1547 13.8311ZM99.16 14.775C98.3268 14.775 97.8522 15.4711 97.8522 16.4045V17.0268C97.8522 17.9602 98.2951 18.651 99.16 18.651C100.014 18.651 100.452 17.9654 100.452 17.0268V16.4045C100.452 15.4711 99.9932 14.775 99.16 14.775ZM103.136 19.5V13.926H104.286V14.9279H104.344C104.486 14.4902 104.892 13.8416 106.021 13.8416C107.144 13.8416 107.898 14.4639 107.898 15.7348V19.5H106.727V16.0775C106.727 15.2285 106.284 14.8383 105.625 14.8383C104.76 14.8383 104.307 15.5027 104.307 16.4045V19.5H103.136ZM112.428 13.9629V12.5707H113.572V13.9629H114.822V14.8805H113.572V17.8389C113.572 18.4453 113.799 18.6141 114.427 18.6141C114.585 18.6141 114.796 18.6035 114.885 18.593V19.4895C114.79 19.5053 114.4 19.5369 114.137 19.5369C112.781 19.5369 112.412 19.0518 112.412 17.9338V14.8805H111.563V13.9629H112.428ZM116.299 19.5V11.9221H117.464V14.9279H117.522C117.643 14.5324 118.097 13.8416 119.215 13.8416C120.301 13.8416 121.076 14.4691 121.076 15.74V19.5H119.911V16.0828C119.911 15.2338 119.442 14.8383 118.777 14.8383C117.939 14.8383 117.464 15.4975 117.464 16.4045V19.5H116.299ZM125.005 19.5949C123.486 19.5949 122.542 18.6615 122.542 17.09V16.3359C122.542 14.7539 123.576 13.8311 124.937 13.8311C126.334 13.8311 127.32 14.8014 127.32 16.3359V16.9898H123.703V17.2641C123.703 18.0656 124.177 18.6562 125 18.6562C125.612 18.6562 126.033 18.3662 126.113 18.0182H127.257C127.188 18.6615 126.508 19.5949 125.005 19.5949ZM123.703 16.2252H126.176V16.1514C126.176 15.3129 125.685 14.7539 124.942 14.7539C124.198 14.7539 123.703 15.3129 123.703 16.1514V16.2252Z" fill="white"/>
<path d="M46.3465 37.5H43.9102L48.8672 23.1035H51.5461L56.4926 37.5H53.9613L52.6852 33.5133H47.6332L46.3465 37.5ZM50.2172 25.5926H50.1223L48.1711 31.6781H52.1473L50.2172 25.5926ZM63.2165 37.6582C61.7715 37.6582 60.6747 36.9727 60.084 35.9496H59.9997V41.202H57.6583V26.352H59.9364V27.9867H60.0208C60.6325 26.9215 61.7715 26.2043 63.2692 26.2043C65.7688 26.2043 67.5512 28.0922 67.5512 31.425V32.4164C67.5512 35.7281 65.7899 37.6582 63.2165 37.6582ZM62.6786 35.7281C64.1657 35.7281 65.1782 34.5363 65.1782 32.2898V31.5094C65.1782 29.3473 64.229 28.1133 62.6364 28.1133C61.0016 28.1133 59.9786 29.4422 59.9786 31.4988V32.2898C59.9786 34.3992 61.0122 35.7281 62.6786 35.7281ZM75.1189 37.6582C73.674 37.6582 72.5771 36.9727 71.9865 35.9496H71.9021V41.202H69.5607V26.352H71.8388V27.9867H71.9232C72.5349 26.9215 73.674 26.2043 75.1716 26.2043C77.6712 26.2043 79.4536 28.0922 79.4536 31.425V32.4164C79.4536 35.7281 77.6923 37.6582 75.1189 37.6582ZM74.581 35.7281C76.0681 35.7281 77.0806 34.5363 77.0806 32.2898V31.5094C77.0806 29.3473 76.1314 28.1133 74.5388 28.1133C72.904 28.1133 71.881 29.4422 71.881 31.4988V32.2898C71.881 34.3992 72.9146 35.7281 74.581 35.7281ZM84.3057 33.5027H86.6471C86.7526 34.7473 87.8495 35.8125 89.885 35.8125C91.7518 35.8125 92.8592 34.9371 92.8592 33.5766C92.8592 32.4797 92.121 31.8891 90.5811 31.5199L88.2186 30.9293C86.3624 30.4969 84.696 29.3895 84.696 27.048C84.696 24.2953 87.1006 22.7871 89.8956 22.7871C92.6905 22.7871 95.0213 24.2953 95.0741 26.9848H92.7749C92.6694 25.7613 91.7307 24.7488 89.8639 24.7488C88.2186 24.7488 87.1006 25.5293 87.1006 26.8687C87.1006 27.8074 87.7545 28.4824 89.094 28.7883L91.446 29.3684C93.6081 29.8957 95.2534 30.9187 95.2534 33.3656C95.2534 36.1922 92.9647 37.7848 89.7057 37.7848C85.6979 37.7848 84.3585 35.4434 84.3057 33.5027ZM98.1066 26.352V23.6414H100.406V26.352H102.578V28.2293H100.406V34.1777C100.406 35.3906 100.859 35.7281 102.114 35.7281C102.315 35.7281 102.505 35.7281 102.642 35.707V37.5C102.452 37.5316 102.009 37.5738 101.534 37.5738C98.8238 37.5738 98.0749 36.6035 98.0749 34.3676V28.2293H96.5351V26.352H98.1066ZM108.902 26.1621C112.108 26.1621 113.848 28.4191 113.848 31.4566V32.3531C113.848 35.4961 112.118 37.6898 108.902 37.6898C105.685 37.6898 103.934 35.4961 103.934 32.3531V31.4566C103.934 28.4297 105.695 26.1621 108.902 26.1621ZM108.902 28.0395C107.161 28.0395 106.296 29.4633 106.296 31.4883V32.3426C106.296 34.3359 107.151 35.802 108.902 35.802C110.652 35.802 111.496 34.3465 111.496 32.3426V31.4883C111.496 29.4527 110.642 28.0395 108.902 28.0395ZM115.826 37.5V26.352H118.167V27.818H118.252C118.536 27.1219 119.37 26.1937 120.92 26.1937C121.226 26.1937 121.49 26.2148 121.711 26.257V28.3242C121.511 28.2715 121.099 28.2398 120.709 28.2398C118.832 28.2398 118.199 29.4 118.199 30.8977V37.5H115.826ZM127.391 37.6898C124.406 37.6898 122.508 35.7176 122.508 32.4164V31.2879C122.508 28.1766 124.364 26.1621 127.296 26.1621C130.27 26.1621 132.063 28.2504 132.063 31.3934V32.4586H124.817V32.7223C124.817 34.5996 125.83 35.8441 127.422 35.8441C128.614 35.8441 129.426 35.2535 129.711 34.2937H131.936C131.599 36.0973 130.143 37.6898 127.391 37.6898ZM124.817 30.8238H129.774V30.8027C129.774 29.2207 128.793 27.9762 127.306 27.9762C125.798 27.9762 124.817 29.2207 124.817 30.8027V30.8238Z" fill="white"/>
</svg>
