<svg width="145" height="48" viewBox="0 0 145 48" fill="none" xmlns="http://www.w3.org/2000/svg">
<rect x="1.1" y="0.6" width="142.8" height="46.8" rx="6.6" fill="black"/>
<rect x="1.1" y="0.6" width="142.8" height="46.8" rx="6.6" stroke="#A6A6A6" stroke-width="1.2"/>
<path d="M21.8692 23.3544L10.2109 36.0075C10.212 36.0097 10.212 36.0131 10.2131 36.0153C10.5712 37.3893 11.7976 38.4004 13.2539 38.4004C13.8364 38.4004 14.3828 38.2391 14.8515 37.957L14.8887 37.9346L28.0109 30.1916L21.8692 23.3544Z" fill="#EA4335"/>
<path d="M33.6606 21.2L33.6496 21.1922L27.9842 17.8341L21.6016 23.6422L28.0072 30.1904L33.642 26.8659C34.6296 26.3195 35.3009 25.2546 35.3009 24.0274C35.3009 22.8068 34.6395 21.7476 33.6606 21.2Z" fill="#FBBC04"/>
<path d="M10.2089 11.9924C10.1388 12.2567 10.1016 12.5344 10.1016 12.821V35.1801C10.1016 35.4667 10.1388 35.7444 10.21 36.0076L22.2679 23.6781L10.2089 11.9924Z" fill="#4285F4"/>
<path d="M21.9557 24.0005L27.989 17.8318L14.8821 10.0608C14.4058 9.76855 13.8496 9.60059 13.255 9.60059C11.7987 9.60059 10.5701 10.614 10.212 11.989C10.212 11.9901 10.2109 11.9912 10.2109 11.9924L21.9557 24.0005Z" fill="#34A853"/>
<path d="M52.8312 13.052C52.8312 14.252 52.4752 15.208 51.7632 15.92C50.9632 16.768 49.9112 17.192 48.6072 17.192C47.3592 17.192 46.3032 16.76 45.4392 15.896C44.5752 15.032 44.1432 13.968 44.1432 12.704C44.1432 11.44 44.5752 10.376 45.4392 9.512C46.3032 8.648 47.3592 8.216 48.6072 8.216C49.2392 8.216 49.8352 8.328 50.3952 8.552C50.9552 8.776 51.4152 9.092 51.7752 9.5L50.9832 10.292C50.7192 9.972 50.3752 9.724 49.9512 9.548C49.5352 9.364 49.0872 9.272 48.6072 9.272C47.6712 9.272 46.8792 9.596 46.2312 10.244C45.5912 10.9 45.2712 11.72 45.2712 12.704C45.2712 13.688 45.5912 14.508 46.2312 15.164C46.8792 15.812 47.6712 16.136 48.6072 16.136C49.4632 16.136 50.1752 15.896 50.7432 15.416C51.3112 14.936 51.6392 14.276 51.7272 13.436H48.6072V12.404H52.7712C52.8112 12.628 52.8312 12.844 52.8312 13.052ZM59.1886 8.408V9.464H55.2766V12.188H58.8046V13.22H55.2766V15.944H59.1886V17H54.1726V8.408H59.1886ZM63.6045 9.464V17H62.5005V9.464H60.1005V8.408H66.0045V9.464H63.6045ZM70.8977 17H69.7937V8.408H70.8977V17ZM75.5576 9.464V17H74.4536V9.464H72.0536V8.408H77.9576V9.464H75.5576ZM89.9244 12.704C89.9244 13.976 89.5004 15.04 88.6524 15.896C87.7964 16.76 86.7484 17.192 85.5084 17.192C84.2604 17.192 83.2124 16.76 82.3644 15.896C81.5164 15.04 81.0924 13.976 81.0924 12.704C81.0924 11.432 81.5164 10.368 82.3644 9.512C83.2124 8.648 84.2604 8.216 85.5084 8.216C86.7564 8.216 87.8044 8.652 88.6524 9.524C89.5004 10.38 89.9244 11.44 89.9244 12.704ZM82.2204 12.704C82.2204 13.696 82.5324 14.516 83.1564 15.164C83.7884 15.812 84.5724 16.136 85.5084 16.136C86.4444 16.136 87.2244 15.812 87.8484 15.164C88.4804 14.524 88.7964 13.704 88.7964 12.704C88.7964 11.704 88.4804 10.884 87.8484 10.244C87.2244 9.596 86.4444 9.272 85.5084 9.272C84.5724 9.272 83.7884 9.596 83.1564 10.244C82.5324 10.892 82.2204 11.712 82.2204 12.704ZM92.3313 17H91.2273V8.408H92.5713L96.7473 15.092H96.7953L96.7473 13.436V8.408H97.8513V17H96.6993L92.3313 9.992H92.2833L92.3313 11.648V17Z" fill="white"/>
<path d="M112.721 35.2917H114.676V22.0779H112.721V35.2917ZM130.326 26.8376L128.085 32.5667H128.018L125.693 26.8376H123.587L127.074 34.8446L125.087 39.2988H127.125L132.499 26.8376H130.326ZM119.241 33.7907C118.6 33.7907 117.708 33.4683 117.708 32.6682C117.708 31.6492 118.819 31.2581 119.78 31.2581C120.639 31.2581 121.044 31.4452 121.566 31.6999C121.414 32.924 120.37 33.7907 119.241 33.7907ZM119.477 26.5491C118.062 26.5491 116.596 27.178 115.99 28.5722L117.725 29.3026C118.096 28.5722 118.786 28.3333 119.511 28.3333C120.521 28.3333 121.549 28.9453 121.566 30.0341V30.1694C121.212 29.9654 120.454 29.6599 119.527 29.6599C117.658 29.6599 115.753 30.6968 115.753 32.6343C115.753 34.4027 117.287 35.5422 119.005 35.5422C120.319 35.5422 121.044 34.9471 121.499 34.2495H121.566V35.2695H123.452V30.2032C123.452 27.8577 121.718 26.5491 119.477 26.5491ZM107.398 28.4464H104.618V23.9171H107.398C108.859 23.9171 109.689 25.1379 109.689 26.1812C109.689 27.2055 108.859 28.4464 107.398 28.4464ZM107.347 22.0779H102.664V35.2917H104.618V30.2856H107.347C109.514 30.2856 111.643 28.7022 111.643 26.1812C111.643 23.6602 109.514 22.0779 107.347 22.0779ZM81.8092 33.7928C80.459 33.7928 79.3288 32.6523 79.3288 31.0858C79.3288 29.5024 80.459 28.3439 81.8092 28.3439C83.1426 28.3439 84.188 29.5024 84.188 31.0858C84.188 32.6523 83.1426 33.7928 81.8092 33.7928ZM84.0539 27.5775H83.9858C83.5469 27.0501 82.7037 26.5734 81.6405 26.5734C79.4126 26.5734 77.3711 28.5479 77.3711 31.0858C77.3711 33.6057 79.4126 35.5644 81.6405 35.5644C82.7037 35.5644 83.5469 35.0877 83.9858 34.5423H84.0539V35.1902C84.0539 36.91 83.1426 37.8296 81.6741 37.8296C80.4758 37.8296 79.7331 36.9607 79.4293 36.2282L77.7251 36.9438C78.2143 38.1361 79.5142 39.6001 81.6741 39.6001C83.9691 39.6001 85.91 38.2376 85.91 34.9175V26.845H84.0539V27.5775ZM87.2602 35.2917H89.2179V22.0768H87.2602V35.2917ZM92.1026 30.9325C92.0524 29.1958 93.4361 28.3101 94.4312 28.3101C95.2084 28.3101 95.8662 28.7012 96.0851 29.2635L92.1026 30.9325ZM98.1779 29.4337C97.8071 28.4295 96.6759 26.5734 94.3641 26.5734C92.0691 26.5734 90.1627 28.3946 90.1627 31.0689C90.1627 33.5888 92.0524 35.5644 94.583 35.5644C96.6256 35.5644 97.8071 34.3044 98.2963 33.5719L96.7775 32.5498C96.2716 33.2992 95.5792 33.7928 94.583 33.7928C93.588 33.7928 92.8788 33.333 92.4232 32.4314L98.3801 29.9442L98.1779 29.4337ZM50.7193 27.9528V29.8597H55.2413C55.1061 30.9325 54.7521 31.7158 54.2126 32.2601C53.5538 32.925 52.5241 33.6575 50.7193 33.6575C47.9341 33.6575 45.7575 31.3923 45.7575 28.5828C45.7575 25.7722 47.9341 23.508 50.7193 23.508C52.2214 23.508 53.3181 24.1042 54.1278 24.8705L55.4612 23.5249C54.33 22.4351 52.8289 21.6001 50.7193 21.6001C46.9055 21.6001 43.6992 24.7342 43.6992 28.5828C43.6992 32.4314 46.9055 35.5644 50.7193 35.5644C52.7776 35.5644 54.33 34.8826 55.545 33.6057C56.7946 32.3458 57.1822 30.5753 57.1822 29.1441C57.1822 28.7012 57.1487 28.2931 57.0806 27.9528H50.7193ZM62.3242 33.7928C60.974 33.7928 59.8092 32.6692 59.8092 31.0689C59.8092 29.4506 60.974 28.3439 62.3242 28.3439C63.6734 28.3439 64.8381 29.4506 64.8381 31.0689C64.8381 32.6692 63.6734 33.7928 62.3242 33.7928ZM62.3242 26.5734C59.8595 26.5734 57.8515 28.4633 57.8515 31.0689C57.8515 33.6575 59.8595 35.5644 62.3242 35.5644C64.7879 35.5644 66.7959 33.6575 66.7959 31.0689C66.7959 28.4633 64.7879 26.5734 62.3242 26.5734ZM72.0793 33.7928C70.7291 33.7928 69.5643 32.6692 69.5643 31.0689C69.5643 29.4506 70.7291 28.3439 72.0793 28.3439C73.4295 28.3439 74.5932 29.4506 74.5932 31.0689C74.5932 32.6692 73.4295 33.7928 72.0793 33.7928ZM72.0793 26.5734C69.6156 26.5734 67.6076 28.4633 67.6076 31.0689C67.6076 33.6575 69.6156 35.5644 72.0793 35.5644C74.5429 35.5644 76.5509 33.6575 76.5509 31.0689C76.5509 28.4633 74.5429 26.5734 72.0793 26.5734Z" fill="white"/>
</svg>
